<?xml version="1.0" encoding="UTF-8"?>
<svg xmlns="http://www.w3.org/2000/svg" xmlns:xlink="http://www.w3.org/1999/xlink" width="1024px" height="1024px" viewBox="0 0 1024 1024" version="1.1">
<g id="surface1">
<path style=" stroke:none;fill-rule:nonzero;fill:rgb(21.960784%,62.7451%,61.960787%);fill-opacity:1;" d="M 297.070312 740.550781 C 297.710938 702.957031 291.65625 627.253906 263.089844 609.199219 C 231.242188 588.308594 201.234375 585.25 152.097656 551.105469 C 102.960938 516.960938 19.832031 395.585938 52 323.042969 C 90.882812 408.703125 161.003906 522.910156 287.457031 518.503906 C 413.914062 514.101562 438.75 370.789062 454.929688 274.773438 C 483.46875 303.941406 475.121094 401.433594 469.167969 435.613281 C 460.738281 486.800781 419.296875 535.777344 391.210938 557.773438 C 363.125 579.773438 345.863281 584.773438 336.410156 608.359375 C 331.84375 645.277344 344.957031 679.339844 351.253906 709.6875 C 357.554688 740.03125 367.023438 760.339844 350.039062 772.082031 C 298.585938 800.953125 295.605469 781.644531 297.070312 740.550781 Z M 216.078125 347.476562 C 208.234375 326.246094 201.097656 304.539062 202.976562 281.570312 C 200.625 249.554688 241.769531 225.558594 267.933594 245.28125 C 284.605469 259.214844 293.089844 281.777344 293.976562 303.003906 C 296.003906 354.933594 302.648438 443.847656 285.269531 458.539062 C 267.886719 473.234375 220.5 357.921875 216.078125 347.476562 Z M 216.078125 347.476562 "/>
<path style=" stroke:none;fill-rule:nonzero;fill:rgb(16.078432%,61.56863%,64.313728%);fill-opacity:1;" d="M 489.03125 603.933594 L 489.03125 508.585938 C 489.03125 506.882812 488.320312 506.171875 486.617188 506.171875 L 473.988281 506.171875 C 472.289062 506.171875 471.4375 506.882812 471.4375 508.585938 L 471.4375 603.933594 C 471.4375 605.636719 472.289062 606.34375 473.988281 606.34375 L 486.617188 606.34375 C 488.320312 606.34375 489.03125 605.636719 489.03125 603.933594 Z M 489.03125 603.933594 "/>
<path style=" stroke:none;fill-rule:nonzero;fill:rgb(16.078432%,61.56863%,64.313728%);fill-opacity:1;" d="M 569.246094 603.933594 L 569.246094 552.851562 C 569.246094 535.828125 553.921875 531.003906 538.882812 531.003906 C 528.382812 531.003906 519.726562 532.988281 515.042969 535.257812 C 510.789062 537.386719 509.367188 539.375 509.367188 544.054688 L 509.367188 603.933594 C 509.367188 605.636719 510.21875 606.34375 511.921875 606.34375 L 523.132812 606.34375 C 524.835938 606.34375 525.6875 605.636719 525.6875 603.933594 L 525.6875 549.164062 C 525.6875 544.625 526.820312 539.800781 538.3125 539.800781 C 549.664062 539.800781 553.070312 546.609375 553.070312 553.5625 L 553.070312 603.933594 C 553.070312 605.636719 553.777344 606.34375 555.480469 606.34375 L 566.832031 606.34375 C 568.535156 606.34375 569.246094 605.636719 569.246094 603.933594 Z M 569.246094 603.933594 "/>
<path style=" stroke:none;fill-rule:nonzero;fill:rgb(16.078432%,61.56863%,64.313728%);fill-opacity:1;" d="M 638.433594 585.769531 C 638.433594 561.507812 601.117188 565.621094 601.117188 549.023438 C 601.117188 542.777344 604.949219 538.949219 611.617188 538.949219 C 618.003906 538.949219 620.984375 543.914062 622.828125 548.3125 C 623.960938 551.292969 626.660156 553.136719 629.921875 553.136719 C 633.46875 553.136719 636.304688 551.007812 636.304688 546.75 C 636.304688 541.078125 629.355469 531.003906 611.902344 531.003906 C 596.863281 531.003906 586.21875 538.664062 586.21875 551.859375 C 586.21875 574.5625 622.96875 571.15625 622.96875 588.183594 C 622.96875 594.851562 618.003906 598.964844 612.328125 598.964844 C 604.664062 598.964844 601.542969 593.859375 599.273438 588.183594 C 598.140625 585.34375 595.160156 583.5 591.613281 583.5 C 587.640625 583.5 584.800781 585.769531 584.800781 590.3125 C 584.800781 596.554688 592.890625 608.1875 612.042969 608.1875 C 628.21875 608.1875 638.433594 599.25 638.433594 585.769531 Z M 638.433594 585.769531 "/>
<path style=" stroke:none;fill-rule:nonzero;fill:rgb(16.078432%,61.56863%,64.313728%);fill-opacity:1;" d="M 689.78125 601.945312 C 689.78125 600.101562 688.648438 598.964844 686.378906 598.964844 C 685.382812 598.964844 684.53125 599.25 683.113281 599.25 C 678.855469 599.25 674.316406 597.265625 674.316406 587.898438 L 674.316406 541.929688 L 686.09375 541.929688 C 687.796875 541.929688 688.503906 541.078125 688.503906 539.375 L 688.503906 535.257812 C 688.503906 533.554688 687.796875 532.847656 686.09375 532.847656 L 674.316406 532.847656 L 674.316406 515.394531 C 674.316406 513.835938 673.609375 512.984375 672.046875 512.984375 C 671.335938 512.984375 670.628906 513.550781 670.058594 513.835938 L 659.84375 518.800781 C 658.425781 519.507812 658.285156 520.644531 658.285156 522.632812 L 658.285156 532.847656 L 650.761719 532.847656 C 649.0625 532.847656 648.351562 533.554688 648.351562 535.257812 L 648.351562 539.375 C 648.351562 541.078125 649.0625 541.929688 650.761719 541.929688 L 658.285156 541.929688 L 658.285156 587.617188 C 658.285156 605.351562 669.632812 608.046875 676.871094 608.046875 C 684.25 608.046875 689.78125 605.351562 689.78125 601.945312 Z M 689.78125 601.945312 "/>
<path style=" stroke:none;fill-rule:nonzero;fill:rgb(16.078432%,61.56863%,64.313728%);fill-opacity:1;" d="M 721.515625 512.839844 C 721.515625 508.585938 717.6875 505.179688 712.152344 505.179688 C 706.617188 505.179688 702.789062 508.585938 702.789062 512.839844 C 702.789062 517.097656 706.617188 520.503906 712.152344 520.503906 C 717.6875 520.503906 721.515625 517.097656 721.515625 512.839844 Z M 720.238281 603.933594 L 720.238281 535.257812 C 720.238281 533.554688 719.53125 532.847656 717.828125 532.847656 L 706.476562 532.847656 C 704.773438 532.847656 704.0625 533.554688 704.0625 535.257812 L 704.0625 603.933594 C 704.0625 605.636719 704.773438 606.34375 706.476562 606.34375 L 717.828125 606.34375 C 719.53125 606.34375 720.238281 605.636719 720.238281 603.933594 Z M 720.238281 603.933594 "/>
<path style=" stroke:none;fill-rule:nonzero;fill:rgb(16.078432%,61.56863%,64.313728%);fill-opacity:1;" d="M 775.691406 601.945312 C 775.691406 600.101562 774.554688 598.964844 772.285156 598.964844 C 771.292969 598.964844 770.441406 599.25 769.023438 599.25 C 764.765625 599.25 760.226562 597.265625 760.226562 587.898438 L 760.226562 541.929688 L 772 541.929688 C 773.703125 541.929688 774.414062 541.078125 774.414062 539.375 L 774.414062 535.257812 C 774.414062 533.554688 773.703125 532.847656 772 532.847656 L 760.226562 532.847656 L 760.226562 515.394531 C 760.226562 513.835938 759.515625 512.984375 757.953125 512.984375 C 757.246094 512.984375 756.535156 513.550781 755.96875 513.835938 L 745.753906 518.800781 C 744.332031 519.507812 744.191406 520.644531 744.191406 522.632812 L 744.191406 532.847656 L 736.671875 532.847656 C 734.96875 532.847656 734.261719 533.554688 734.261719 535.257812 L 734.261719 539.375 C 734.261719 541.078125 734.96875 541.929688 736.671875 541.929688 L 744.191406 541.929688 L 744.191406 587.617188 C 744.191406 605.351562 755.542969 608.046875 762.777344 608.046875 C 770.15625 608.046875 775.691406 605.351562 775.691406 601.945312 Z M 775.691406 601.945312 "/>
<path style=" stroke:none;fill-rule:nonzero;fill:rgb(16.078432%,61.56863%,64.313728%);fill-opacity:1;" d="M 847.722656 593.574219 L 847.722656 535.257812 C 847.722656 533.554688 847.011719 532.847656 845.308594 532.847656 L 833.957031 532.847656 C 832.253906 532.847656 831.546875 533.554688 831.546875 535.257812 L 831.546875 589.035156 C 831.546875 594.285156 829.703125 598.113281 818.492188 598.113281 C 810.546875 598.113281 805.4375 593.859375 805.4375 585.34375 L 805.4375 535.257812 C 805.4375 533.554688 804.730469 532.847656 803.027344 532.847656 L 791.675781 532.847656 C 789.972656 532.847656 789.261719 533.554688 789.261719 535.257812 L 789.261719 585.914062 C 789.261719 606.0625 808.558594 608.046875 818.207031 608.046875 C 829.84375 608.046875 838.921875 605.636719 842.613281 603.507812 C 845.875 601.664062 847.722656 598.964844 847.722656 593.574219 Z M 847.722656 593.574219 "/>
<path style=" stroke:none;fill-rule:nonzero;fill:rgb(16.078432%,61.56863%,64.313728%);fill-opacity:1;" d="M 902.613281 601.945312 C 902.613281 600.101562 901.476562 598.964844 899.207031 598.964844 C 898.214844 598.964844 897.363281 599.25 895.945312 599.25 C 891.6875 599.25 887.148438 597.265625 887.148438 587.898438 L 887.148438 541.929688 L 898.925781 541.929688 C 900.628906 541.929688 901.335938 541.078125 901.335938 539.375 L 901.335938 535.257812 C 901.335938 533.554688 900.625 532.847656 898.925781 532.847656 L 887.148438 532.847656 L 887.148438 515.394531 C 887.148438 513.835938 886.4375 512.984375 884.878906 512.984375 C 884.167969 512.984375 883.457031 513.550781 882.890625 513.835938 L 872.675781 518.800781 C 871.257812 519.507812 871.113281 520.644531 871.113281 522.632812 L 871.113281 532.847656 L 863.59375 532.847656 C 861.890625 532.847656 861.183594 533.554688 861.183594 535.257812 L 861.183594 539.375 C 861.183594 541.078125 861.890625 541.929688 863.59375 541.929688 L 871.113281 541.929688 L 871.113281 587.617188 C 871.113281 605.351562 882.464844 608.046875 889.703125 608.046875 C 897.078125 608.046875 902.613281 605.351562 902.613281 601.945312 Z M 902.613281 601.945312 "/>
<path style=" stroke:none;fill-rule:nonzero;fill:rgb(16.078432%,61.56863%,64.313728%);fill-opacity:1;" d="M 979.203125 569.3125 C 979.203125 547.601562 966.71875 531.003906 945.71875 531.003906 C 924.71875 531.003906 912.375 547.601562 912.375 569.3125 C 912.375 591.019531 924.292969 608.1875 945.71875 608.1875 C 967.144531 608.1875 979.203125 591.019531 979.203125 569.3125 Z M 962.601562 569.738281 C 962.601562 585.203125 958.347656 598.113281 945.859375 598.113281 C 933.941406 598.113281 928.976562 583.644531 928.976562 568.035156 C 928.976562 552.710938 933.800781 540.082031 945.433594 540.082031 C 957.496094 540.082031 962.601562 554.273438 962.601562 569.738281 Z M 962.601562 569.738281 "/>
<path style=" stroke:none;fill-rule:nonzero;fill:rgb(16.078432%,61.56863%,64.313728%);fill-opacity:1;" d="M 559.121094 761.769531 C 559.121094 761.058594 558.839844 760.207031 558.554688 759.5 L 524.5 666.421875 C 523.933594 664.71875 523.082031 664.007812 521.238281 664.007812 L 509.320312 664.007812 C 507.332031 664.007812 506.625 664.859375 506.054688 666.421875 L 472.003906 759.5 C 471.71875 760.351562 471.4375 761.058594 471.4375 761.769531 C 471.4375 763.1875 472.144531 764.179688 473.847656 764.179688 L 484.207031 764.179688 C 486.050781 764.179688 486.757812 763.328125 487.328125 761.769531 L 496.976562 734.386719 L 531.171875 734.386719 L 540.820312 761.769531 C 541.386719 763.472656 542.238281 764.179688 543.941406 764.179688 L 556.710938 764.179688 C 558.414062 764.179688 559.121094 763.1875 559.121094 761.769531 Z M 528.472656 724.167969 L 499.8125 724.167969 L 509.746094 694.941406 C 512.441406 686.851562 514.003906 676.636719 514.003906 676.636719 L 514.285156 676.636719 C 514.285156 676.636719 515.988281 686.851562 518.683594 694.941406 Z M 528.472656 724.167969 "/>
<path style=" stroke:none;fill-rule:nonzero;fill:rgb(16.078432%,61.56863%,64.313728%);fill-opacity:1;" d="M 626.851562 741.761719 C 626.851562 739.777344 625.574219 738.214844 623.585938 738.214844 C 621.886719 738.214844 620.464844 739.210938 619.613281 740.769531 C 616.636719 746.160156 612.519531 752.6875 603.582031 752.6875 C 589.535156 752.6875 583.007812 738.925781 583.007812 723.175781 C 583.007812 706.433594 590.667969 697.777344 599.183594 697.777344 C 607.839844 697.777344 610.960938 705.722656 611.953125 708.988281 C 612.945312 712.109375 614.933594 714.664062 618.90625 714.664062 C 623.730469 714.664062 626.425781 711.964844 626.425781 707.425781 C 626.425781 701.183594 618.195312 688.839844 600.175781 688.839844 C 581.589844 688.839844 568.109375 702.316406 568.109375 727.433594 C 568.109375 754.390625 583.148438 766.027344 599.609375 766.027344 C 617.34375 766.027344 626.851562 750.417969 626.851562 741.761719 Z M 626.851562 741.761719 "/>
<path style=" stroke:none;fill-rule:nonzero;fill:rgb(16.078432%,61.56863%,64.313728%);fill-opacity:1;" d="M 705.050781 727.148438 C 705.050781 705.441406 692.566406 688.839844 671.566406 688.839844 C 650.566406 688.839844 638.222656 705.441406 638.222656 727.148438 C 638.222656 748.855469 650.140625 766.027344 671.566406 766.027344 C 692.992188 766.027344 705.050781 748.855469 705.050781 727.148438 Z M 688.449219 727.574219 C 688.449219 743.039062 684.195312 755.953125 671.707031 755.953125 C 659.789062 755.953125 654.824219 741.480469 654.824219 725.871094 C 654.824219 710.546875 659.648438 697.917969 671.28125 697.917969 C 683.34375 697.917969 688.449219 712.109375 688.449219 727.574219 Z M 688.449219 727.574219 "/>
<path style=" stroke:none;fill-rule:nonzero;fill:rgb(16.078432%,61.56863%,64.313728%);fill-opacity:1;" d="M 737.898438 761.769531 L 737.898438 658.050781 C 737.898438 656.347656 737.1875 655.636719 735.484375 655.636719 L 724.136719 655.636719 C 722.433594 655.636719 721.722656 656.347656 721.722656 658.050781 L 721.722656 761.769531 C 721.722656 763.472656 722.433594 764.179688 724.136719 764.179688 L 735.484375 764.179688 C 737.1875 764.179688 737.898438 763.472656 737.898438 761.769531 Z M 737.898438 761.769531 "/>
<path style=" stroke:none;fill-rule:nonzero;fill:rgb(16.078432%,61.56863%,64.313728%);fill-opacity:1;" d="M 818.300781 761.769531 L 818.300781 710.121094 C 818.300781 696.074219 807.375 688.839844 795.171875 688.839844 C 786.09375 688.839844 778.855469 692.671875 774.742188 696.785156 L 774.742188 658.050781 C 774.742188 656.347656 773.890625 655.636719 772.1875 655.636719 L 760.980469 655.636719 C 759.277344 655.636719 758.425781 656.347656 758.425781 658.050781 L 758.425781 761.769531 C 758.425781 763.472656 759.277344 764.179688 760.980469 764.179688 L 772.1875 764.179688 C 773.890625 764.179688 774.742188 763.472656 774.742188 761.769531 L 774.742188 705.015625 C 778.148438 701.324219 782.828125 698.769531 789.214844 698.769531 C 796.308594 698.769531 802.125 703.167969 802.125 712.390625 L 802.125 761.769531 C 802.125 763.472656 802.835938 764.179688 804.539062 764.179688 L 815.890625 764.179688 C 817.59375 764.179688 818.300781 763.472656 818.300781 761.769531 Z M 818.300781 761.769531 "/>
<path style=" stroke:none;fill-rule:nonzero;fill:rgb(16.078432%,61.56863%,64.313728%);fill-opacity:1;" d="M 895.152344 742.046875 C 895.152344 740.203125 893.734375 738.5 891.890625 738.5 C 890.1875 738.5 888.910156 739.777344 888.199219 741.054688 C 885.222656 746.304688 879.261719 753.113281 870.179688 753.113281 C 856.558594 753.113281 850.03125 741.621094 849.183594 728.285156 L 890.472656 721.472656 C 893.449219 721.046875 894.726562 720.054688 894.726562 716.933594 C 894.726562 702.601562 884.652344 688.839844 866.917969 688.839844 C 850.03125 688.839844 834.425781 700.617188 834.425781 727.007812 C 834.425781 754.816406 849.75 766.027344 866.917969 766.027344 C 885.078125 766.027344 895.152344 750.558594 895.152344 742.046875 Z M 879.261719 714.945312 L 848.472656 720.195312 C 849.039062 709.128906 853.863281 697.777344 865.214844 697.777344 C 875.289062 697.777344 878.835938 706.148438 879.261719 714.945312 Z M 879.261719 714.945312 "/>
<path style=" stroke:none;fill-rule:nonzero;fill:rgb(16.078432%,61.56863%,64.313728%);fill-opacity:1;" d="M 956.957031 699.195312 C 956.957031 693.519531 951.566406 688.839844 938.367188 688.839844 C 929.289062 688.839844 921.058594 690.96875 916.660156 692.953125 C 912.402344 694.941406 910.84375 697.210938 910.84375 701.894531 L 910.84375 761.769531 C 910.84375 763.472656 911.695312 764.179688 913.398438 764.179688 L 924.605469 764.179688 C 926.308594 764.179688 927.160156 763.472656 927.160156 761.769531 L 927.160156 705.015625 C 927.160156 700.472656 930.566406 697.777344 935.957031 697.777344 C 944.042969 697.777344 942.484375 706.292969 950.144531 706.292969 C 954.542969 706.292969 956.957031 703.453125 956.957031 699.195312 Z M 956.957031 699.195312 "/>
</g>
</svg>
