<?xml version="1.0" encoding="UTF-8"?>
<svg xmlns="http://www.w3.org/2000/svg" xmlns:xlink="http://www.w3.org/1999/xlink" width="1024px" height="1024px" viewBox="0 0 1024 1024" version="1.1">
<g id="surface1">
<path style=" stroke:none;fill-rule:nonzero;fill:rgb(83.92157%,94.901961%,95.686275%);fill-opacity:1;" d="M 576.988281 912.007812 C 578.109375 846.214844 567.515625 713.714844 517.515625 682.113281 C 461.777344 645.554688 409.257812 640.199219 323.257812 580.441406 C 237.257812 520.683594 91.765625 308.253906 148.066406 181.289062 C 216.117188 331.207031 338.84375 531.09375 560.164062 523.386719 C 781.488281 515.679688 824.953125 264.855469 853.269531 96.804688 C 903.226562 147.859375 888.609375 318.488281 878.191406 378.304688 C 863.441406 467.898438 790.90625 553.613281 741.75 592.113281 C 692.597656 630.613281 662.382812 639.367188 645.84375 680.644531 C 637.847656 745.261719 660.796875 804.878906 671.824219 857.992188 C 682.847656 911.101562 699.421875 946.648438 669.691406 967.195312 C 579.644531 1017.722656 574.421875 983.929688 576.988281 912.007812 Z M 435.238281 224.046875 C 421.503906 186.894531 409.015625 148.902344 412.308594 108.699219 C 408.191406 52.667969 480.199219 10.667969 525.996094 45.1875 C 555.167969 69.574219 570.023438 109.066406 571.570312 146.210938 C 575.121094 237.105469 586.75 392.71875 556.332031 418.433594 C 525.914062 444.148438 442.976562 242.328125 435.238281 224.046875 Z M 435.238281 224.046875 "/>
</g>
</svg>
